<?xml version="1.0" encoding="UTF-8"?> <svg xmlns="http://www.w3.org/2000/svg" viewBox="0 0 2821 840" width="500" height="149"><defs><clipPath id="cp1"><path d="M-99 -549L2901 -549L2901 1451L-99 1451Z"></path></clipPath></defs><style> tspan { white-space:pre } .shp0 { fill: #000000 } .shp1 { fill: #1e8767 } .shp2 { fill: #edbb1d } .shp3 { fill: #1f8667 } .shp4 { fill: #22c6ff } </style><g id="Page 1" clip-path="url(#cp1)"><path id="Path 1" fill-rule="evenodd" class="shp0" d="M996.09 276.89L976.11 243.53L1037.18 243.53L1059.5 271.33L1081.81 243.53L1142.89 243.53L1122.92 276.89C1109.56 299.19 1085.49 312.83 1059.5 312.83C1033.51 312.83 1009.44 299.19 996.09 276.89ZM1103.74 469.83L1154.64 469.83L1154.64 529.34L971.8 529.34L971.8 477.66L1032.88 410.32L1051.28 392.31L1022.7 393.09L971.8 393.09L971.8 333.58L1150.72 333.58L1150.72 385.26L1090.82 451.82L1071.64 470.61L1103.74 469.83ZM1383.67 481.18C1388.11 481.18 1391.37 480.66 1393.46 479.61L1386.41 525.42C1377.54 530.64 1367.88 533.25 1357.44 533.25C1341.52 533.25 1328.21 530.45 1317.51 524.84C1306.8 519.23 1299.63 511.07 1295.98 500.37C1289.97 510.54 1281.16 518.57 1269.55 524.44C1257.93 530.32 1243.51 533.25 1226.28 533.25C1205.93 533.25 1190.79 529.28 1180.87 521.32C1170.95 513.35 1165.99 501.81 1165.99 486.66C1165.99 470.22 1171.87 457.1 1183.61 447.31C1195.35 437.53 1214.93 429.63 1242.34 423.63L1281.1 415.02L1281.1 407.18C1281.1 401.18 1279.59 396.48 1276.6 393.09C1273.59 389.7 1269.21 388 1263.48 388C1257.21 388 1252.25 389.76 1248.6 393.29C1244.94 396.81 1242.98 403.01 1242.73 411.88L1168.34 400.53C1170.43 378.09 1179.82 360.66 1196.53 348.26C1213.23 335.87 1237.25 329.67 1268.57 329.67C1303.28 329.67 1328.92 336.32 1345.5 349.63C1362.07 362.95 1370.36 383.17 1370.36 410.32L1370.36 465.13C1370.36 475.84 1374.8 481.18 1383.67 481.18ZM1281.1 446.34L1268.18 450.25C1262.7 451.82 1258.39 454.36 1255.26 457.88C1252.13 461.41 1250.56 465.65 1250.56 470.61C1250.56 475.05 1251.86 478.44 1254.48 480.79C1257.08 483.14 1260.35 484.31 1264.26 484.31C1269.21 484.31 1273.27 482.68 1276.4 479.42C1279.53 476.16 1281.1 471.39 1281.1 465.13L1281.1 446.34ZM1511.3 474.13C1516 474.13 1520.7 473.48 1525.4 472.18L1521.48 520.72C1516.78 524.39 1509.73 527.38 1500.34 529.73C1490.94 532.08 1481.8 533.25 1472.93 533.25C1448.66 533.25 1431.3 528.03 1420.86 517.59C1410.42 507.16 1405.2 489.67 1405.2 465.13L1405.2 255.28L1495.25 255.28L1495.25 451.42C1495.25 459.52 1496.42 465.32 1498.77 468.85C1501.12 472.37 1505.29 474.13 1511.3 474.13ZM1660.85 333.58L1750.9 333.58L1750.9 529.34L1669.86 529.34L1667.9 487.83C1662.16 502.97 1653.73 514.33 1642.64 521.9C1631.55 529.47 1617.92 533.25 1601.73 533.25C1580.85 533.25 1565.06 527.84 1554.36 517.01C1543.66 506.18 1538.31 489.14 1538.31 465.91L1538.31 333.58L1628.35 333.58L1628.35 443.6C1628.35 452.21 1629.47 458.21 1631.68 461.61C1633.9 465 1637.62 466.69 1642.84 466.69C1654.85 466.69 1660.85 456.39 1660.85 435.76L1660.85 333.58ZM1906.72 469.83L1957.62 469.83L1957.62 529.34L1774.78 529.34L1774.78 477.66L1835.85 410.32L1854.26 392.31L1825.67 393.09L1774.78 393.09L1774.78 333.58L1953.69 333.58L1953.69 385.26L1893.8 451.82L1874.61 470.61L1906.72 469.83Z"></path><path id="Path 2" fill-rule="evenodd" class="shp1" d="M2293.08 355.51C2310.96 372.74 2319.9 395.97 2319.9 425.19C2319.9 435.12 2319.24 442.95 2317.94 448.69L2193.44 448.69C2194.75 458.35 2197.48 464.87 2201.66 468.26C2205.84 471.66 2212.1 473.35 2220.45 473.35C2233.24 473.35 2241.07 467.74 2243.95 456.52L2316.38 476.09C2311.94 494.88 2301.04 509.11 2283.69 518.77C2266.32 528.43 2245.25 533.25 2220.45 533.25C2183.39 533.25 2155.27 524.51 2136.08 507.03C2116.9 489.54 2107.31 464.35 2107.31 431.46C2107.31 399.1 2116.76 374.04 2135.69 356.29C2154.61 338.54 2181.3 329.67 2215.75 329.67C2249.42 329.67 2275.2 338.28 2293.08 355.51ZM2235.73 415.41C2234.94 406.54 2233.04 399.94 2230.05 395.64C2227.04 391.33 2222.41 389.18 2216.15 389.18C2209.36 389.18 2204.14 391.13 2200.48 395.05C2196.83 398.96 2194.48 405.76 2193.44 415.41L2235.73 415.41ZM2518.63 355.51C2536.51 372.74 2545.45 395.97 2545.45 425.19C2545.45 435.12 2544.8 442.95 2543.49 448.69L2418.99 448.69C2420.3 458.35 2423.03 464.87 2427.21 468.26C2431.39 471.66 2437.65 473.35 2446.01 473.35C2458.79 473.35 2466.62 467.74 2469.5 456.52L2541.93 476.09C2537.49 494.88 2526.59 509.11 2509.24 518.77C2491.87 528.43 2470.8 533.25 2446.01 533.25C2408.94 533.25 2380.82 524.51 2361.63 507.03C2342.45 489.54 2332.86 464.35 2332.86 431.46C2332.86 399.1 2342.31 374.04 2361.24 356.29C2380.16 338.54 2406.85 329.67 2441.3 329.67C2474.97 329.67 2500.75 338.28 2518.63 355.51ZM2461.28 415.41C2460.49 406.54 2458.59 399.94 2455.6 395.64C2452.6 391.33 2447.96 389.18 2441.7 389.18C2434.91 389.18 2429.69 391.13 2426.04 395.05C2422.38 398.96 2420.03 405.76 2418.99 415.41L2461.28 415.41ZM2769.04 448.69L2644.54 448.69C2645.85 458.35 2648.58 464.87 2652.76 468.26C2656.94 471.66 2663.2 473.35 2671.56 473.35C2684.34 473.35 2692.17 467.74 2695.05 456.52L2767.48 476.09C2763.04 494.88 2752.14 509.11 2734.79 518.77C2717.43 528.43 2696.35 533.25 2671.56 533.25C2634.49 533.25 2606.37 524.51 2587.18 507.03C2568 489.54 2558.41 464.35 2558.41 431.46C2558.41 399.1 2567.87 374.04 2586.79 356.29C2605.72 338.54 2632.4 329.67 2666.86 329.67C2700.52 329.67 2726.3 338.28 2744.18 355.51C2762.06 372.74 2771 395.97 2771 425.19C2771 435.12 2770.35 442.95 2769.04 448.69ZM2686.83 415.41C2686.04 406.54 2684.14 399.94 2681.15 395.64C2678.15 391.33 2673.51 389.18 2667.25 389.18C2660.46 389.18 2655.24 391.13 2651.59 395.05C2647.93 398.96 2645.58 405.76 2644.54 415.41L2686.83 415.41Z"></path><path id="Path 3" class="shp0" d="M2023 314.3C2040.28 314.3 2052.61 311.32 2059.98 305.37C2067.36 299.42 2071.03 289.79 2071.03 276.46C2071.03 262.85 2067.36 253.07 2059.98 247.12C2052.61 241.17 2040.28 238.19 2023 238.19C2005.7 238.19 1993.38 241.17 1986 247.12C1978.64 253.07 1974.95 262.85 1974.95 276.46C1974.95 289.79 1978.64 299.42 1986 305.37C1993.38 311.32 2005.7 314.3 2023 314.3ZM2067.78 466.87C2065.47 463.4 2064.31 457.52 2064.31 449.42L2064.31 335.55L1974.26 335.55L1974.26 463.21C1974.26 487.7 1979.46 505.15 1989.88 515.66C2000.29 526.07 2017.64 531.27 2041.94 531.27C2049.17 531.27 2056.69 530.5 2064.31 528.96C2065.95 528.58 2067.58 528.19 2069.32 527.8C2078.77 525.39 2085.81 522.41 2090.53 518.74L2094.39 470.24C2089.66 471.5 2085.04 472.17 2080.31 472.17C2074.33 472.17 2070.09 470.44 2067.78 466.87Z"></path><path id="Path 4" class="shp1" d="M31 222.51L129.24 322.4L915.17 335.54L816.93 262.84L31 222.51ZM31 369.88L129.24 464.66L915.17 437.04L816.93 369.43L31 369.88ZM31 517.24L129.24 606.93L915.17 538.54L816.93 476.03L31 517.24ZM31 664.6L129.24 749.2L915.17 640.04L816.93 582.62L31 664.6ZM915.17 234.04L816.93 156.24L31 75.15L129.24 180.13L915.17 234.04Z"></path><path id="Path 5" fill-rule="evenodd" class="shp0" d="M2358.31 714.25L2387.21 714.25C2408.45 714.25 2422.33 728.24 2422.33 749.79C2422.33 771.06 2408.86 787.16 2386.55 787.16L2358.31 787.16L2358.31 714.25ZM2374.07 774.42L2385.89 774.42C2399.87 774.42 2406.05 764.03 2406.05 749.83C2406.05 737.92 2400.26 726.99 2385.98 726.99L2374.07 726.99L2374.07 774.42ZM2445.68 763.03C2445.7 769.88 2449.12 776.57 2456.67 776.57C2462.98 776.57 2464.78 774.04 2466.22 770.72L2481.39 770.72C2479.45 777.43 2473.47 788.43 2456.27 788.43C2438.24 788.43 2430.42 774.95 2430.42 760.59C2430.42 743.42 2439.23 731.15 2456.81 731.15C2475.61 731.15 2482 744.75 2482 758.42C2482 760.27 2482 761.47 2481.8 763.03L2445.68 763.03ZM2466.82 753.72C2466.72 747.35 2464.17 741.99 2456.79 741.99C2449.53 741.99 2446.6 747 2446 753.72L2466.82 753.72ZM2492.63 746.53C2492.63 741.8 2492.63 737.11 2492.53 732.42L2507.02 732.42C2507.22 733.75 2507.52 736.81 2507.6 738.95C2510.38 734.87 2514.78 731.16 2522.82 731.16C2530.68 731.16 2535.01 735.23 2536.94 739.48C2540.14 735.01 2544.87 731.16 2553.8 731.16C2563.34 731.16 2571.15 737.02 2571.15 751.25L2571.15 787.16L2556.37 787.16L2556.37 753.1C2556.37 748.15 2554.57 743.32 2548.37 743.32C2541.93 743.32 2539.42 747.47 2539.42 755.87L2539.42 787.16L2524.55 787.16L2524.55 753.67C2524.55 747.99 2523.16 743.41 2516.69 743.41C2510.53 743.41 2507.6 747.2 2507.6 756.59L2507.6 787.16L2492.63 787.16L2492.63 746.53ZM2629.51 773.02C2629.51 778.23 2629.93 785.84 2630.25 787.16L2615.77 787.16C2615.35 786.08 2615.03 783.19 2615 781.81C2613.02 784.88 2609.3 788.43 2599.61 788.43C2586.42 788.43 2580.85 779.75 2580.85 771.26C2580.85 758.79 2590.86 753.04 2606.91 753.04L2614.72 753.04L2614.72 749.69C2614.72 745.8 2613.32 741.98 2606.29 741.98C2599.9 741.98 2598.5 744.7 2597.8 748.66L2583.39 748.66C2584.21 738.93 2590.22 731.06 2606.86 731.15C2621.53 731.25 2629.51 736.97 2629.51 750L2629.51 773.02ZM2614.74 762.24L2608.56 762.24C2599.43 762.24 2596.04 765.03 2596.04 770.31C2596.04 774.27 2598.47 777.61 2603.92 777.61C2613.55 777.61 2614.74 770.91 2614.74 763.68L2614.74 762.24ZM2653.31 732.42C2659.01 742.73 2661.33 746.78 2662.98 749.58L2663.09 749.58C2664.97 746.26 2668.31 740.23 2672.76 732.42L2689.58 732.42L2671.83 758.48L2689.53 787.16L2672.38 787.16C2667.47 777.89 2664.39 771.9 2662.78 768.76L2662.68 768.76C2661.23 771.64 2657.49 778.74 2653.01 787.16L2636.45 787.16L2653.4 760.48L2636.55 732.42L2653.31 732.42ZM2696.52 732.42L2711.68 732.42L2711.68 787.16L2696.52 787.16L2696.52 732.42ZM2696.52 709.96L2711.68 709.96L2711.68 723.48L2696.52 723.48L2696.52 709.96ZM2770.26 773.02C2770.26 778.23 2770.68 785.84 2771 787.16L2756.52 787.16C2756.1 786.08 2755.78 783.19 2755.76 781.81C2753.77 784.88 2750.05 788.43 2740.37 788.43C2727.17 788.43 2721.6 779.75 2721.6 771.26C2721.6 758.79 2731.61 753.04 2747.66 753.04L2755.48 753.04L2755.48 749.69C2755.48 745.8 2754.08 741.98 2747.05 741.98C2740.65 741.98 2739.25 744.7 2738.55 748.66L2724.14 748.66C2724.96 738.93 2730.98 731.06 2747.62 731.15C2762.28 731.25 2770.26 736.97 2770.26 750L2770.26 773.02ZM2755.49 762.24L2749.31 762.24C2740.18 762.24 2736.8 765.03 2736.8 770.31C2736.8 774.27 2739.23 777.61 2744.68 777.61C2754.3 777.61 2755.49 770.91 2755.49 763.68L2755.49 762.24Z"></path><path id="Path 6" class="shp2" d="M2253.26 749.2L2214.43 710.37L2253.26 671.55L2292.08 710.37L2253.26 749.2Z"></path><path id="Path 7" class="shp3" d="M2292.08 788.02L2253.26 749.2L2292.08 710.37L2330.91 749.2L2292.08 788.02Z"></path><path id="Path 8" class="shp4" d="M2253.26 826.85L2214.43 788.02L2253.26 749.2L2292.08 788.02L2253.26 826.85Z"></path><path id="Path 9" fill-rule="evenodd" class="shp0" d="M2094.59 710.08L2101.21 710.08L2101.21 741.87C2103.46 737.27 2108.5 732.82 2117.28 732.82C2129.61 732.82 2137.14 742.78 2137.14 759.05C2137.14 775.04 2130.84 788.36 2115.79 788.36C2107.59 788.36 2103.18 784.74 2101.16 780.09C2101.22 782.37 2101.04 785.01 2100.83 787.42L2094.39 787.42C2094.49 784.68 2094.59 779.73 2094.59 772.71L2094.59 710.08ZM2130.24 759.31C2130.24 746.73 2125.44 738.88 2116.01 738.88C2104.9 738.88 2100.83 746.36 2100.83 759.98C2100.83 773.69 2103.77 782.33 2115.58 782.33C2125.6 782.33 2130.24 772.92 2130.24 759.31ZM2150.72 733.86C2159.46 760.64 2164.08 774.31 2165.52 780.72L2165.62 780.72C2167.2 775.12 2172.01 759.09 2180.05 733.86L2187.03 733.86L2168.54 789.9C2163.29 805.75 2159.71 809.5 2150.35 809.5C2149.22 809.5 2147.22 809.38 2146.16 809.15L2146.16 803.16C2147.24 803.38 2149.09 803.48 2150.5 803.48C2157.52 803.48 2159.32 797.68 2162.27 788.74L2143.5 733.86L2150.72 733.86Z"></path></g></svg> 